<svg xmlns="http://www.w3.org/2000/svg" version="1.1" xmlns:xlink="http://www.w3.org/1999/xlink" xmlns:svgjs="http://svgjs.com/svgjs" width="1440" height="560" preserveAspectRatio="none" viewBox="0 0 1440 560"><g mask="url(&quot;#SvgjsMask1000&quot;)" fill="none"><rect width="1440" height="560" x="0" y="0" fill="#0e2a47"></rect><path d="M-108.24 396.34L-108.24 396.34" stroke="#132e65" stroke-width="1.5"></path><path d="M-108.24 396.34L-59.41 506.15" stroke="#132e65" stroke-width="1.5"></path><path d="M-108.24 396.34L45.55 401.05" stroke="#132e65" stroke-width="1.5"></path><path d="M-108.24 396.34L96.5 507.03" stroke="#132e65" stroke-width="1.5"></path><path d="M-108.24 396.34L-106.81 651.68" stroke="#132e65" stroke-width="1.5"></path><path d="M-108.24 396.34L189.52 399.09" stroke="#132e65" stroke-width="1.5"></path><path d="M-108.24 396.34L43.97 659.84" stroke="#132e65" stroke-width="1.5"></path><path d="M-59.41 506.15L-59.41 506.15" stroke="#132e65" stroke-width="1.5"></path><path d="M-59.41 506.15L45.55 401.05" stroke="#132e65" stroke-width="1.5"></path><path d="M-59.41 506.15L-106.81 651.68" stroke="#132e65" stroke-width="1.5"></path><path d="M-106.81 651.68L-106.81 651.68" stroke="#132e65" stroke-width="1.5"></path><path d="M-106.81 651.68L43.97 659.84" stroke="#132e65" stroke-width="1.5"></path><path d="M-106.81 651.68L96.5 507.03" stroke="#132e65" stroke-width="1.5"></path><path d="M45.55 401.05L45.55 401.05" stroke="#132e65" stroke-width="1.5"></path><path d="M45.55 401.05L96.5 507.03" stroke="#132e65" stroke-width="1.5"></path><path d="M45.55 401.05L189.52 399.09" stroke="#132e65" stroke-width="1.5"></path><path d="M96.5 507.03L96.5 507.03" stroke="#132e65" stroke-width="1.5"></path><path d="M43.97 659.84L43.97 659.84" stroke="#132e65" stroke-width="1.5"></path><path d="M43.97 659.84L96.5 507.03" stroke="#132e65" stroke-width="1.5"></path><path d="M43.97 659.84L-59.41 506.15" stroke="#132e65" stroke-width="1.5"></path><path d="M189.52 399.09L189.52 399.09" stroke="#132e65" stroke-width="1.5"></path><path d="M189.52 399.09L214.96 527.24" stroke="#132e65" stroke-width="1.5"></path><path d="M189.52 399.09L96.5 507.03" stroke="#132e65" stroke-width="1.5"></path><path d="M189.52 399.09L356.12 397.61" stroke="#132e65" stroke-width="1.5"></path><path d="M214.96 527.24L214.96 527.24" stroke="#132e65" stroke-width="1.5"></path><path d="M214.96 527.24L96.5 507.03" stroke="#132e65" stroke-width="1.5"></path><path d="M237.43 712.01L237.43 712.01" stroke="#132e65" stroke-width="1.5"></path><path d="M237.43 712.01L411.66 683.01" stroke="#132e65" stroke-width="1.5"></path><path d="M237.43 712.01L214.96 527.24" stroke="#132e65" stroke-width="1.5"></path><path d="M237.43 712.01L43.97 659.84" stroke="#132e65" stroke-width="1.5"></path><path d="M237.43 712.01L396.89 528.19" stroke="#132e65" stroke-width="1.5"></path><path d="M237.43 712.01L96.5 507.03" stroke="#132e65" stroke-width="1.5"></path><path d="M237.43 712.01L189.52 399.09" stroke="#132e65" stroke-width="1.5"></path><path d="M356.12 397.61L356.12 397.61" stroke="#132e65" stroke-width="1.5"></path><path d="M356.12 397.61L396.89 528.19" stroke="#132e65" stroke-width="1.5"></path><path d="M356.12 397.61L517.65 410.05" stroke="#132e65" stroke-width="1.5"></path><path d="M356.12 397.61L214.96 527.24" stroke="#132e65" stroke-width="1.5"></path><path d="M396.89 528.19L396.89 528.19" stroke="#132e65" stroke-width="1.5"></path><path d="M396.89 528.19L531.23 520.26" stroke="#132e65" stroke-width="1.5"></path><path d="M411.66 683.01L411.66 683.01" stroke="#132e65" stroke-width="1.5"></path><path d="M411.66 683.01L396.89 528.19" stroke="#132e65" stroke-width="1.5"></path><path d="M411.66 683.01L531.23 520.26" stroke="#132e65" stroke-width="1.5"></path><path d="M411.66 683.01L642.89 696.9" stroke="#132e65" stroke-width="1.5"></path><path d="M411.66 683.01L214.96 527.24" stroke="#132e65" stroke-width="1.5"></path><path d="M517.65 410.05L517.65 410.05" stroke="#132e65" stroke-width="1.5"></path><path d="M517.65 410.05L531.23 520.26" stroke="#132e65" stroke-width="1.5"></path><path d="M517.65 410.05L638.56 386.28" stroke="#132e65" stroke-width="1.5"></path><path d="M531.23 520.26L531.23 520.26" stroke="#132e65" stroke-width="1.5"></path><path d="M531.23 520.26L655.97 561.91" stroke="#132e65" stroke-width="1.5"></path><path d="M659.49 260.27L659.49 260.27" stroke="#132e65" stroke-width="1.5"></path><path d="M659.49 260.27L638.56 386.28" stroke="#132e65" stroke-width="1.5"></path><path d="M659.49 260.27L812.33 229.75" stroke="#132e65" stroke-width="1.5"></path><path d="M659.49 260.27L814.45 342.25" stroke="#132e65" stroke-width="1.5"></path><path d="M659.49 260.27L517.65 410.05" stroke="#132e65" stroke-width="1.5"></path><path d="M638.56 386.28L638.56 386.28" stroke="#132e65" stroke-width="1.5"></path><path d="M638.56 386.28L531.23 520.26" stroke="#132e65" stroke-width="1.5"></path><path d="M638.56 386.28L655.97 561.91" stroke="#132e65" stroke-width="1.5"></path><path d="M638.56 386.28L814.45 342.25" stroke="#132e65" stroke-width="1.5"></path><path d="M638.56 386.28L812.33 229.75" stroke="#132e65" stroke-width="1.5"></path><path d="M655.97 561.91L655.97 561.91" stroke="#132e65" stroke-width="1.5"></path><path d="M655.97 561.91L642.89 696.9" stroke="#132e65" stroke-width="1.5"></path><path d="M642.89 696.9L642.89 696.9" stroke="#132e65" stroke-width="1.5"></path><path d="M642.89 696.9L531.23 520.26" stroke="#132e65" stroke-width="1.5"></path><path d="M642.89 696.9L810.65 559.79" stroke="#132e65" stroke-width="1.5"></path><path d="M642.89 696.9L396.89 528.19" stroke="#132e65" stroke-width="1.5"></path><path d="M642.89 696.9L638.56 386.28" stroke="#132e65" stroke-width="1.5"></path><path d="M812.33 229.75L812.33 229.75" stroke="#132e65" stroke-width="1.5"></path><path d="M812.33 229.75L814.45 342.25" stroke="#132e65" stroke-width="1.5"></path><path d="M812.33 229.75L964.03 347.23" stroke="#132e65" stroke-width="1.5"></path><path d="M814.45 342.25L814.45 342.25" stroke="#132e65" stroke-width="1.5"></path><path d="M814.45 342.25L964.03 347.23" stroke="#132e65" stroke-width="1.5"></path><path d="M814.45 342.25L810.65 559.79" stroke="#132e65" stroke-width="1.5"></path><path d="M810.65 559.79L810.65 559.79" stroke="#132e65" stroke-width="1.5"></path><path d="M810.65 559.79L655.97 561.91" stroke="#132e65" stroke-width="1.5"></path><path d="M810.65 559.79L974.47 660.6" stroke="#132e65" stroke-width="1.5"></path><path d="M810.65 559.79L638.56 386.28" stroke="#132e65" stroke-width="1.5"></path><path d="M810.65 559.79L964.03 347.23" stroke="#132e65" stroke-width="1.5"></path><path d="M994.31 -87.9L994.31 -87.9" stroke="#132e65" stroke-width="1.5"></path><path d="M994.31 -87.9L1093.25 -76.03" stroke="#132e65" stroke-width="1.5"></path><path d="M994.31 -87.9L966.79 92.28" stroke="#132e65" stroke-width="1.5"></path><path d="M994.31 -87.9L1128.75 68.36" stroke="#132e65" stroke-width="1.5"></path><path d="M994.31 -87.9L1011.33 223.95" stroke="#132e65" stroke-width="1.5"></path><path d="M966.79 92.28L966.79 92.28" stroke="#132e65" stroke-width="1.5"></path><path d="M966.79 92.28L1011.33 223.95" stroke="#132e65" stroke-width="1.5"></path><path d="M966.79 92.28L1128.75 68.36" stroke="#132e65" stroke-width="1.5"></path><path d="M966.79 92.28L812.33 229.75" stroke="#132e65" stroke-width="1.5"></path><path d="M966.79 92.28L1097.95 256.11" stroke="#132e65" stroke-width="1.5"></path><path d="M1011.33 223.95L1011.33 223.95" stroke="#132e65" stroke-width="1.5"></path><path d="M1011.33 223.95L1097.95 256.11" stroke="#132e65" stroke-width="1.5"></path><path d="M1011.33 223.95L964.03 347.23" stroke="#132e65" stroke-width="1.5"></path><path d="M964.03 347.23L964.03 347.23" stroke="#132e65" stroke-width="1.5"></path><path d="M964.03 347.23L1097.95 256.11" stroke="#132e65" stroke-width="1.5"></path><path d="M974.47 660.6L974.47 660.6" stroke="#132e65" stroke-width="1.5"></path><path d="M974.47 660.6L1090.28 679.34" stroke="#132e65" stroke-width="1.5"></path><path d="M974.47 660.6L1259.85 665.92" stroke="#132e65" stroke-width="1.5"></path><path d="M974.47 660.6L964.03 347.23" stroke="#132e65" stroke-width="1.5"></path><path d="M1093.25 -76.03L1093.25 -76.03" stroke="#132e65" stroke-width="1.5"></path><path d="M1128.75 68.36L1128.75 68.36" stroke="#132e65" stroke-width="1.5"></path><path d="M1128.75 68.36L1093.25 -76.03" stroke="#132e65" stroke-width="1.5"></path><path d="M1128.75 68.36L1097.95 256.11" stroke="#132e65" stroke-width="1.5"></path><path d="M1128.75 68.36L1011.33 223.95" stroke="#132e65" stroke-width="1.5"></path><path d="M1097.95 256.11L1097.95 256.11" stroke="#132e65" stroke-width="1.5"></path><path d="M1097.95 256.11L1149.41 357.42" stroke="#132e65" stroke-width="1.5"></path><path d="M1149.41 357.42L1149.41 357.42" stroke="#132e65" stroke-width="1.5"></path><path d="M1149.41 357.42L1241.42 411.45" stroke="#132e65" stroke-width="1.5"></path><path d="M1149.41 357.42L1267.05 248.12" stroke="#132e65" stroke-width="1.5"></path><path d="M1149.41 357.42L964.03 347.23" stroke="#132e65" stroke-width="1.5"></path><path d="M1149.41 357.42L1011.33 223.95" stroke="#132e65" stroke-width="1.5"></path><path d="M1090.28 679.34L1090.28 679.34" stroke="#132e65" stroke-width="1.5"></path><path d="M1090.28 679.34L1259.85 665.92" stroke="#132e65" stroke-width="1.5"></path><path d="M1090.28 679.34L1299.28 514.27" stroke="#132e65" stroke-width="1.5"></path><path d="M1090.28 679.34L810.65 559.79" stroke="#132e65" stroke-width="1.5"></path><path d="M1090.28 679.34L1241.42 411.45" stroke="#132e65" stroke-width="1.5"></path><path d="M1267.05 248.12L1267.05 248.12" stroke="#132e65" stroke-width="1.5"></path><path d="M1267.05 248.12L1409.17 193.32" stroke="#132e65" stroke-width="1.5"></path><path d="M1241.42 411.45L1241.42 411.45" stroke="#132e65" stroke-width="1.5"></path><path d="M1241.42 411.45L1299.28 514.27" stroke="#132e65" stroke-width="1.5"></path><path d="M1299.28 514.27L1299.28 514.27" stroke="#132e65" stroke-width="1.5"></path><path d="M1299.28 514.27L1402.56 546.26" stroke="#132e65" stroke-width="1.5"></path><path d="M1259.85 665.92L1259.85 665.92" stroke="#132e65" stroke-width="1.5"></path><path d="M1259.85 665.92L1299.28 514.27" stroke="#132e65" stroke-width="1.5"></path><path d="M1259.85 665.92L1402.56 546.26" stroke="#132e65" stroke-width="1.5"></path><path d="M1259.85 665.92L1448.23 644.81" stroke="#132e65" stroke-width="1.5"></path><path d="M1259.85 665.92L1241.42 411.45" stroke="#132e65" stroke-width="1.5"></path><path d="M1433.77 -64.4L1433.77 -64.4" stroke="#132e65" stroke-width="1.5"></path><path d="M1433.77 -64.4L1447.03 56.45" stroke="#132e65" stroke-width="1.5"></path><path d="M1433.77 -64.4L1585.73 -51.96" stroke="#132e65" stroke-width="1.5"></path><path d="M1433.77 -64.4L1584.54 66.42" stroke="#132e65" stroke-width="1.5"></path><path d="M1447.03 56.45L1447.03 56.45" stroke="#132e65" stroke-width="1.5"></path><path d="M1447.03 56.45L1584.54 66.42" stroke="#132e65" stroke-width="1.5"></path><path d="M1447.03 56.45L1409.17 193.32" stroke="#132e65" stroke-width="1.5"></path><path d="M1447.03 56.45L1585.73 -51.96" stroke="#132e65" stroke-width="1.5"></path><path d="M1447.03 56.45L1605.2 202.21" stroke="#132e65" stroke-width="1.5"></path><path d="M1409.17 193.32L1409.17 193.32" stroke="#132e65" stroke-width="1.5"></path><path d="M1409.17 193.32L1443.85 369.37" stroke="#132e65" stroke-width="1.5"></path><path d="M1409.17 193.32L1605.2 202.21" stroke="#132e65" stroke-width="1.5"></path><path d="M1443.85 369.37L1443.85 369.37" stroke="#132e65" stroke-width="1.5"></path><path d="M1443.85 369.37L1607.95 390.08" stroke="#132e65" stroke-width="1.5"></path><path d="M1402.56 546.26L1402.56 546.26" stroke="#132e65" stroke-width="1.5"></path><path d="M1402.56 546.26L1448.23 644.81" stroke="#132e65" stroke-width="1.5"></path><path d="M1402.56 546.26L1443.85 369.37" stroke="#132e65" stroke-width="1.5"></path><path d="M1448.23 644.81L1448.23 644.81" stroke="#132e65" stroke-width="1.5"></path><path d="M1448.23 644.81L1589.6 674.9" stroke="#132e65" stroke-width="1.5"></path><path d="M1585.73 -51.96L1585.73 -51.96" stroke="#132e65" stroke-width="1.5"></path><path d="M1585.73 -51.96L1584.54 66.42" stroke="#132e65" stroke-width="1.5"></path><path d="M1585.73 -51.96L1605.2 202.21" stroke="#132e65" stroke-width="1.5"></path><path d="M1585.73 -51.96L1409.17 193.32" stroke="#132e65" stroke-width="1.5"></path><path d="M1585.73 -51.96L1267.05 248.12" stroke="#132e65" stroke-width="1.5"></path><path d="M1584.54 66.42L1584.54 66.42" stroke="#132e65" stroke-width="1.5"></path><path d="M1584.54 66.42L1605.2 202.21" stroke="#132e65" stroke-width="1.5"></path><path d="M1605.2 202.21L1605.2 202.21" stroke="#132e65" stroke-width="1.5"></path><path d="M1605.2 202.21L1607.95 390.08" stroke="#132e65" stroke-width="1.5"></path><path d="M1607.95 390.08L1607.95 390.08" stroke="#132e65" stroke-width="1.5"></path><path d="M1607.95 390.08L1601.05 557.62" stroke="#132e65" stroke-width="1.5"></path><path d="M1601.05 557.62L1601.05 557.62" stroke="#132e65" stroke-width="1.5"></path><path d="M1601.05 557.62L1589.6 674.9" stroke="#132e65" stroke-width="1.5"></path><path d="M1601.05 557.62L1448.23 644.81" stroke="#132e65" stroke-width="1.5"></path><path d="M1589.6 674.9L1589.6 674.9" stroke="#132e65" stroke-width="1.5"></path><path d="M1589.6 674.9L1402.56 546.26" stroke="#132e65" stroke-width="1.5"></path><path d="M1589.6 674.9L1607.95 390.08" stroke="#132e65" stroke-width="1.5"></path><path d="M1589.6 674.9L1259.85 665.92" stroke="#132e65" stroke-width="1.5"></path><circle r="5" cx="-108.24" cy="396.34" fill="#132e65"></circle><circle r="5" cx="-59.41" cy="506.15" fill="#132e65"></circle><circle r="5" cx="-106.81" cy="651.68" fill="#132e65"></circle><circle r="5" cx="45.55" cy="401.05" fill="#132e65"></circle><circle r="5" cx="96.5" cy="507.03" fill="#132e65"></circle><circle r="5" cx="43.97" cy="659.84" fill="#132e65"></circle><circle r="5" cx="189.52" cy="399.09" fill="#132e65"></circle><circle r="5" cx="214.96" cy="527.24" fill="#132e65"></circle><circle r="5" cx="237.43" cy="712.01" fill="#132e65"></circle><circle r="5" cx="356.12" cy="397.61" fill="#132e65"></circle><circle r="5" cx="396.89" cy="528.19" fill="#132e65"></circle><circle r="5" cx="411.66" cy="683.01" fill="#132e65"></circle><circle r="5" cx="517.65" cy="410.05" fill="#132e65"></circle><circle r="5" cx="531.23" cy="520.26" fill="#132e65"></circle><circle r="5" cx="659.49" cy="260.27" fill="#132e65"></circle><circle r="5" cx="638.56" cy="386.28" fill="#132e65"></circle><circle r="5" cx="655.97" cy="561.91" fill="#132e65"></circle><circle r="5" cx="642.89" cy="696.9" fill="#132e65"></circle><circle r="5" cx="812.33" cy="229.75" fill="#132e65"></circle><circle r="5" cx="814.45" cy="342.25" fill="#132e65"></circle><circle r="5" cx="810.65" cy="559.79" fill="#132e65"></circle><circle r="5" cx="994.31" cy="-87.9" fill="#132e65"></circle><circle r="5" cx="966.79" cy="92.28" fill="#132e65"></circle><circle r="5" cx="1011.33" cy="223.95" fill="#132e65"></circle><circle r="5" cx="964.03" cy="347.23" fill="#132e65"></circle><circle r="5" cx="974.47" cy="660.6" fill="#132e65"></circle><circle r="5" cx="1093.25" cy="-76.03" fill="#132e65"></circle><circle r="5" cx="1128.75" cy="68.36" fill="#132e65"></circle><circle r="5" cx="1097.95" cy="256.11" fill="#132e65"></circle><circle r="5" cx="1149.41" cy="357.42" fill="#132e65"></circle><circle r="5" cx="1090.28" cy="679.34" fill="#132e65"></circle><circle r="5" cx="1267.05" cy="248.12" fill="#132e65"></circle><circle r="5" cx="1241.42" cy="411.45" fill="#132e65"></circle><circle r="5" cx="1299.28" cy="514.27" fill="#132e65"></circle><circle r="5" cx="1259.85" cy="665.92" fill="#132e65"></circle><circle r="5" cx="1433.77" cy="-64.4" fill="#132e65"></circle><circle r="5" cx="1447.03" cy="56.45" fill="#132e65"></circle><circle r="5" cx="1409.17" cy="193.32" fill="#132e65"></circle><circle r="5" cx="1443.85" cy="369.37" fill="#132e65"></circle><circle r="5" cx="1402.56" cy="546.26" fill="#132e65"></circle><circle r="5" cx="1448.23" cy="644.81" fill="#132e65"></circle><circle r="5" cx="1585.73" cy="-51.96" fill="#132e65"></circle><circle r="5" cx="1584.54" cy="66.42" fill="#132e65"></circle><circle r="5" cx="1605.2" cy="202.21" fill="#132e65"></circle><circle r="5" cx="1607.95" cy="390.08" fill="#132e65"></circle><circle r="5" cx="1601.05" cy="557.62" fill="#132e65"></circle><circle r="5" cx="1589.6" cy="674.9" fill="#132e65"></circle><path d="M374.17 494.31L374.17 494.31" stroke="hsl(228.5, 77.2%, 51.5%)" stroke-width="1.5"></path><path d="M374.17 494.31L543.85 537.87" stroke="hsl(228.5, 77.2%, 51.5%)" stroke-width="1.5"></path><path d="M374.17 494.31L378.52 711.61" stroke="hsl(228.5, 77.2%, 51.5%)" stroke-width="1.5"></path><path d="M543.85 537.87L543.85 537.87" stroke="hsl(228.5, 77.2%, 51.5%)" stroke-width="1.5"></path><path d="M543.85 537.87L656.37 503.79" stroke="hsl(228.5, 77.2%, 51.5%)" stroke-width="1.5"></path><path d="M543.85 537.87L676.99 411.4" stroke="hsl(228.5, 77.2%, 51.5%)" stroke-width="1.5"></path><path d="M543.85 537.87L648.35 704.19" stroke="hsl(228.5, 77.2%, 51.5%)" stroke-width="1.5"></path><path d="M543.85 537.87L378.52 711.61" stroke="hsl(228.5, 77.2%, 51.5%)" stroke-width="1.5"></path><path d="M656.37 503.79L656.37 503.79" stroke="hsl(228.5, 77.2%, 51.5%)" stroke-width="1.5"></path><path d="M656.37 503.79L676.99 411.4" stroke="hsl(228.5, 77.2%, 51.5%)" stroke-width="1.5"></path><path d="M656.37 503.79L837.62 559.33" stroke="hsl(228.5, 77.2%, 51.5%)" stroke-width="1.5"></path><path d="M656.37 503.79L648.35 704.19" stroke="hsl(228.5, 77.2%, 51.5%)" stroke-width="1.5"></path><path d="M656.37 503.79L822.53 692.43" stroke="hsl(228.5, 77.2%, 51.5%)" stroke-width="1.5"></path><path d="M656.37 503.79L374.17 494.31" stroke="hsl(228.5, 77.2%, 51.5%)" stroke-width="1.5"></path><path d="M958.91 411.81L958.91 411.81" stroke="hsl(228.5, 77.2%, 51.5%)" stroke-width="1.5"></path><path d="M958.91 411.81L1007.6 513.12" stroke="hsl(228.5, 77.2%, 51.5%)" stroke-width="1.5"></path><path d="M958.91 411.81L978.47 252.72" stroke="hsl(228.5, 77.2%, 51.5%)" stroke-width="1.5"></path><path d="M958.91 411.81L1097.05 508.06" stroke="hsl(228.5, 77.2%, 51.5%)" stroke-width="1.5"></path><path d="M958.91 411.81L837.62 559.33" stroke="hsl(228.5, 77.2%, 51.5%)" stroke-width="1.5"></path><path d="M958.91 411.81L1088.92 236.88" stroke="hsl(228.5, 77.2%, 51.5%)" stroke-width="1.5"></path><path d="M1097.05 508.06L1097.05 508.06" stroke="hsl(228.5, 77.2%, 51.5%)" stroke-width="1.5"></path><path d="M1097.05 508.06L1007.6 513.12" stroke="hsl(228.5, 77.2%, 51.5%)" stroke-width="1.5"></path><path d="M1097.05 508.06L1238.73 499.41" stroke="hsl(228.5, 77.2%, 51.5%)" stroke-width="1.5"></path><path d="M1097.05 508.06L1149.96 674" stroke="hsl(228.5, 77.2%, 51.5%)" stroke-width="1.5"></path><path d="M1238.73 499.41L1238.73 499.41" stroke="hsl(228.5, 77.2%, 51.5%)" stroke-width="1.5"></path><path d="M1238.73 499.41L1242.07 398.45" stroke="hsl(228.5, 77.2%, 51.5%)" stroke-width="1.5"></path><path d="M1238.73 499.41L1291.67 679.84" stroke="hsl(228.5, 77.2%, 51.5%)" stroke-width="1.5"></path><path d="M1238.73 499.41L1426.14 551.93" stroke="hsl(228.5, 77.2%, 51.5%)" stroke-width="1.5"></path><path d="M1409.15 195.03L1409.15 195.03" stroke="hsl(228.5, 77.2%, 51.5%)" stroke-width="1.5"></path><path d="M1409.15 195.03L1404.5 100.78" stroke="hsl(228.5, 77.2%, 51.5%)" stroke-width="1.5"></path><path d="M1409.15 195.03L1552.56 196.47" stroke="hsl(228.5, 77.2%, 51.5%)" stroke-width="1.5"></path><path d="M1409.15 195.03L1273.81 251.09" stroke="hsl(228.5, 77.2%, 51.5%)" stroke-width="1.5"></path><path d="M1409.15 195.03L1457.69 369.44" stroke="hsl(228.5, 77.2%, 51.5%)" stroke-width="1.5"></path><path d="M1409.15 195.03L1243.88 61.71" stroke="hsl(228.5, 77.2%, 51.5%)" stroke-width="1.5"></path><path d="M1457.69 369.44L1457.69 369.44" stroke="hsl(228.5, 77.2%, 51.5%)" stroke-width="1.5"></path><path d="M1457.69 369.44L1571.57 362.04" stroke="hsl(228.5, 77.2%, 51.5%)" stroke-width="1.5"></path><path d="M1457.69 369.44L1426.14 551.93" stroke="hsl(228.5, 77.2%, 51.5%)" stroke-width="1.5"></path><path d="M1457.69 369.44L1552.56 196.47" stroke="hsl(228.5, 77.2%, 51.5%)" stroke-width="1.5"></path><path d="M1457.69 369.44L1585.47 533.28" stroke="hsl(228.5, 77.2%, 51.5%)" stroke-width="1.5"></path><path d="M1457.69 369.44L1242.07 398.45" stroke="hsl(228.5, 77.2%, 51.5%)" stroke-width="1.5"></path><path d="M1552.56 196.47L1552.56 196.47" stroke="hsl(228.5, 77.2%, 51.5%)" stroke-width="1.5"></path><path d="M1552.56 196.47L1585 61.88" stroke="hsl(228.5, 77.2%, 51.5%)" stroke-width="1.5"></path><path d="M1571.57 362.04L1571.57 362.04" stroke="hsl(228.5, 77.2%, 51.5%)" stroke-width="1.5"></path><path d="M1571.57 362.04L1552.56 196.47" stroke="hsl(228.5, 77.2%, 51.5%)" stroke-width="1.5"></path><path d="M1571.57 362.04L1585.47 533.28" stroke="hsl(228.5, 77.2%, 51.5%)" stroke-width="1.5"></path><path d="M1571.57 362.04L1409.15 195.03" stroke="hsl(228.5, 77.2%, 51.5%)" stroke-width="1.5"></path><path d="M1568.71 640.69L1568.71 640.69" stroke="hsl(228.5, 77.2%, 51.5%)" stroke-width="1.5"></path><path d="M1568.71 640.69L1585.47 533.28" stroke="hsl(228.5, 77.2%, 51.5%)" stroke-width="1.5"></path><path d="M1568.71 640.69L1426.14 551.93" stroke="hsl(228.5, 77.2%, 51.5%)" stroke-width="1.5"></path><path d="M-43.5 538.51L-43.5 538.51" stroke="hsl(228.5, 77.2%, 51.5%)" stroke-width="1.5"></path><path d="M-43.5 538.51L97.29 528.18" stroke="hsl(228.5, 77.2%, 51.5%)" stroke-width="1.5"></path><path d="M-43.5 538.51L58.1 652.29" stroke="hsl(228.5, 77.2%, 51.5%)" stroke-width="1.5"></path><path d="M-43.5 538.51L210.94 669.75" stroke="hsl(228.5, 77.2%, 51.5%)" stroke-width="1.5"></path><path d="M-43.5 538.51L374.17 494.31" stroke="hsl(228.5, 77.2%, 51.5%)" stroke-width="1.5"></path><path d="M-43.5 538.51L378.52 711.61" stroke="hsl(228.5, 77.2%, 51.5%)" stroke-width="1.5"></path><path d="M-43.5 538.51L543.85 537.87" stroke="hsl(228.5, 77.2%, 51.5%)" stroke-width="1.5"></path><path d="M97.29 528.18L97.29 528.18" stroke="hsl(228.5, 77.2%, 51.5%)" stroke-width="1.5"></path><path d="M97.29 528.18L58.1 652.29" stroke="hsl(228.5, 77.2%, 51.5%)" stroke-width="1.5"></path><path d="M97.29 528.18L210.94 669.75" stroke="hsl(228.5, 77.2%, 51.5%)" stroke-width="1.5"></path><path d="M97.29 528.18L374.17 494.31" stroke="hsl(228.5, 77.2%, 51.5%)" stroke-width="1.5"></path><path d="M97.29 528.18L378.52 711.61" stroke="hsl(228.5, 77.2%, 51.5%)" stroke-width="1.5"></path><path d="M58.1 652.29L58.1 652.29" stroke="hsl(228.5, 77.2%, 51.5%)" stroke-width="1.5"></path><path d="M210.94 669.75L210.94 669.75" stroke="hsl(228.5, 77.2%, 51.5%)" stroke-width="1.5"></path><path d="M210.94 669.75L58.1 652.29" stroke="hsl(228.5, 77.2%, 51.5%)" stroke-width="1.5"></path><path d="M210.94 669.75L378.52 711.61" stroke="hsl(228.5, 77.2%, 51.5%)" stroke-width="1.5"></path><path d="M210.94 669.75L374.17 494.31" stroke="hsl(228.5, 77.2%, 51.5%)" stroke-width="1.5"></path><path d="M210.94 669.75L543.85 537.87" stroke="hsl(228.5, 77.2%, 51.5%)" stroke-width="1.5"></path><path d="M378.52 711.61L378.52 711.61" stroke="hsl(228.5, 77.2%, 51.5%)" stroke-width="1.5"></path><path d="M378.52 711.61L648.35 704.19" stroke="hsl(228.5, 77.2%, 51.5%)" stroke-width="1.5"></path><path d="M378.52 711.61L58.1 652.29" stroke="hsl(228.5, 77.2%, 51.5%)" stroke-width="1.5"></path><path d="M676.99 411.4L676.99 411.4" stroke="hsl(228.5, 77.2%, 51.5%)" stroke-width="1.5"></path><path d="M648.35 704.19L648.35 704.19" stroke="hsl(228.5, 77.2%, 51.5%)" stroke-width="1.5"></path><path d="M648.35 704.19L822.53 692.43" stroke="hsl(228.5, 77.2%, 51.5%)" stroke-width="1.5"></path><path d="M648.35 704.19L837.62 559.33" stroke="hsl(228.5, 77.2%, 51.5%)" stroke-width="1.5"></path><path d="M837.62 559.33L837.62 559.33" stroke="hsl(228.5, 77.2%, 51.5%)" stroke-width="1.5"></path><path d="M837.62 559.33L822.53 692.43" stroke="hsl(228.5, 77.2%, 51.5%)" stroke-width="1.5"></path><path d="M837.62 559.33L1007.6 513.12" stroke="hsl(228.5, 77.2%, 51.5%)" stroke-width="1.5"></path><path d="M837.62 559.33L977.86 684.74" stroke="hsl(228.5, 77.2%, 51.5%)" stroke-width="1.5"></path><path d="M822.53 692.43L822.53 692.43" stroke="hsl(228.5, 77.2%, 51.5%)" stroke-width="1.5"></path><path d="M822.53 692.43L977.86 684.74" stroke="hsl(228.5, 77.2%, 51.5%)" stroke-width="1.5"></path><path d="M822.53 692.43L1007.6 513.12" stroke="hsl(228.5, 77.2%, 51.5%)" stroke-width="1.5"></path><path d="M978.47 252.72L978.47 252.72" stroke="hsl(228.5, 77.2%, 51.5%)" stroke-width="1.5"></path><path d="M978.47 252.72L1088.92 236.88" stroke="hsl(228.5, 77.2%, 51.5%)" stroke-width="1.5"></path><path d="M1007.6 513.12L1007.6 513.12" stroke="hsl(228.5, 77.2%, 51.5%)" stroke-width="1.5"></path><path d="M977.86 684.74L977.86 684.74" stroke="hsl(228.5, 77.2%, 51.5%)" stroke-width="1.5"></path><path d="M977.86 684.74L1149.96 674" stroke="hsl(228.5, 77.2%, 51.5%)" stroke-width="1.5"></path><path d="M977.86 684.74L1007.6 513.12" stroke="hsl(228.5, 77.2%, 51.5%)" stroke-width="1.5"></path><path d="M1160.56 101.73L1160.56 101.73" stroke="hsl(228.5, 77.2%, 51.5%)" stroke-width="1.5"></path><path d="M1160.56 101.73L1243.88 61.71" stroke="hsl(228.5, 77.2%, 51.5%)" stroke-width="1.5"></path><path d="M1160.56 101.73L1088.92 236.88" stroke="hsl(228.5, 77.2%, 51.5%)" stroke-width="1.5"></path><path d="M1160.56 101.73L1259.28 -50.4" stroke="hsl(228.5, 77.2%, 51.5%)" stroke-width="1.5"></path><path d="M1160.56 101.73L1273.81 251.09" stroke="hsl(228.5, 77.2%, 51.5%)" stroke-width="1.5"></path><path d="M1088.92 236.88L1088.92 236.88" stroke="hsl(228.5, 77.2%, 51.5%)" stroke-width="1.5"></path><path d="M1088.92 236.88L1273.81 251.09" stroke="hsl(228.5, 77.2%, 51.5%)" stroke-width="1.5"></path><path d="M1088.92 236.88L1242.07 398.45" stroke="hsl(228.5, 77.2%, 51.5%)" stroke-width="1.5"></path><path d="M1088.92 236.88L1243.88 61.71" stroke="hsl(228.5, 77.2%, 51.5%)" stroke-width="1.5"></path><path d="M1149.96 674L1149.96 674" stroke="hsl(228.5, 77.2%, 51.5%)" stroke-width="1.5"></path><path d="M1149.96 674L1291.67 679.84" stroke="hsl(228.5, 77.2%, 51.5%)" stroke-width="1.5"></path><path d="M1149.96 674L1238.73 499.41" stroke="hsl(228.5, 77.2%, 51.5%)" stroke-width="1.5"></path><path d="M1149.96 674L1007.6 513.12" stroke="hsl(228.5, 77.2%, 51.5%)" stroke-width="1.5"></path><path d="M1149.96 674L1242.07 398.45" stroke="hsl(228.5, 77.2%, 51.5%)" stroke-width="1.5"></path><path d="M1259.28 -50.4L1259.28 -50.4" stroke="hsl(228.5, 77.2%, 51.5%)" stroke-width="1.5"></path><path d="M1259.28 -50.4L1243.88 61.71" stroke="hsl(228.5, 77.2%, 51.5%)" stroke-width="1.5"></path><path d="M1259.28 -50.4L1450.24 -93.77" stroke="hsl(228.5, 77.2%, 51.5%)" stroke-width="1.5"></path><path d="M1259.28 -50.4L1404.5 100.78" stroke="hsl(228.5, 77.2%, 51.5%)" stroke-width="1.5"></path><path d="M1259.28 -50.4L1409.15 195.03" stroke="hsl(228.5, 77.2%, 51.5%)" stroke-width="1.5"></path><path d="M1243.88 61.71L1243.88 61.71" stroke="hsl(228.5, 77.2%, 51.5%)" stroke-width="1.5"></path><path d="M1243.88 61.71L1404.5 100.78" stroke="hsl(228.5, 77.2%, 51.5%)" stroke-width="1.5"></path><path d="M1243.88 61.71L1273.81 251.09" stroke="hsl(228.5, 77.2%, 51.5%)" stroke-width="1.5"></path><path d="M1273.81 251.09L1273.81 251.09" stroke="hsl(228.5, 77.2%, 51.5%)" stroke-width="1.5"></path><path d="M1273.81 251.09L1242.07 398.45" stroke="hsl(228.5, 77.2%, 51.5%)" stroke-width="1.5"></path><path d="M1273.81 251.09L1404.5 100.78" stroke="hsl(228.5, 77.2%, 51.5%)" stroke-width="1.5"></path><path d="M1242.07 398.45L1242.07 398.45" stroke="hsl(228.5, 77.2%, 51.5%)" stroke-width="1.5"></path><path d="M1242.07 398.45L1097.05 508.06" stroke="hsl(228.5, 77.2%, 51.5%)" stroke-width="1.5"></path><path d="M1291.67 679.84L1291.67 679.84" stroke="hsl(228.5, 77.2%, 51.5%)" stroke-width="1.5"></path><path d="M1291.67 679.84L1426.14 551.93" stroke="hsl(228.5, 77.2%, 51.5%)" stroke-width="1.5"></path><path d="M1450.24 -93.77L1450.24 -93.77" stroke="hsl(228.5, 77.2%, 51.5%)" stroke-width="1.5"></path><path d="M1450.24 -93.77L1587.51 -54.83" stroke="hsl(228.5, 77.2%, 51.5%)" stroke-width="1.5"></path><path d="M1404.5 100.78L1404.5 100.78" stroke="hsl(228.5, 77.2%, 51.5%)" stroke-width="1.5"></path><path d="M1404.5 100.78L1552.56 196.47" stroke="hsl(228.5, 77.2%, 51.5%)" stroke-width="1.5"></path><path d="M1404.5 100.78L1585 61.88" stroke="hsl(228.5, 77.2%, 51.5%)" stroke-width="1.5"></path><path d="M1426.14 551.93L1426.14 551.93" stroke="hsl(228.5, 77.2%, 51.5%)" stroke-width="1.5"></path><path d="M1426.14 551.93L1585.47 533.28" stroke="hsl(228.5, 77.2%, 51.5%)" stroke-width="1.5"></path><path d="M1587.51 -54.83L1587.51 -54.83" stroke="hsl(228.5, 77.2%, 51.5%)" stroke-width="1.5"></path><path d="M1587.51 -54.83L1585 61.88" stroke="hsl(228.5, 77.2%, 51.5%)" stroke-width="1.5"></path><path d="M1587.51 -54.83L1404.5 100.78" stroke="hsl(228.5, 77.2%, 51.5%)" stroke-width="1.5"></path><path d="M1585 61.88L1585 61.88" stroke="hsl(228.5, 77.2%, 51.5%)" stroke-width="1.5"></path><path d="M1585 61.88L1450.24 -93.77" stroke="hsl(228.5, 77.2%, 51.5%)" stroke-width="1.5"></path><path d="M1585.47 533.28L1585.47 533.28" stroke="hsl(228.5, 77.2%, 51.5%)" stroke-width="1.5"></path><circle r="25" cx="374.17" cy="494.31" fill="url(#SvgjsRadialGradient1001)"></circle><circle r="25" cx="543.85" cy="537.87" fill="url(#SvgjsRadialGradient1001)"></circle><circle r="25" cx="656.37" cy="503.79" fill="url(#SvgjsRadialGradient1001)"></circle><circle r="25" cx="958.91" cy="411.81" fill="url(#SvgjsRadialGradient1001)"></circle><circle r="25" cx="1097.05" cy="508.06" fill="url(#SvgjsRadialGradient1001)"></circle><circle r="25" cx="1238.73" cy="499.41" fill="url(#SvgjsRadialGradient1001)"></circle><circle r="25" cx="1409.15" cy="195.03" fill="url(#SvgjsRadialGradient1001)"></circle><circle r="25" cx="1457.69" cy="369.44" fill="url(#SvgjsRadialGradient1001)"></circle><circle r="25" cx="1552.56" cy="196.47" fill="url(#SvgjsRadialGradient1001)"></circle><circle r="25" cx="1571.57" cy="362.04" fill="url(#SvgjsRadialGradient1001)"></circle><circle r="25" cx="1568.71" cy="640.69" fill="url(#SvgjsRadialGradient1001)"></circle><circle r="5" cx="-43.5" cy="538.51" fill="#8b9ad9"></circle><circle r="5" cx="97.29" cy="528.18" fill="#8b9ad9"></circle><circle r="5" cx="58.1" cy="652.29" fill="#8b9ad9"></circle><circle r="5" cx="210.94" cy="669.75" fill="#8b9ad9"></circle><circle r="5" cx="378.52" cy="711.61" fill="#8b9ad9"></circle><circle r="5" cx="676.99" cy="411.4" fill="#8b9ad9"></circle><circle r="5" cx="648.35" cy="704.19" fill="#8b9ad9"></circle><circle r="5" cx="837.62" cy="559.33" fill="#8b9ad9"></circle><circle r="5" cx="822.53" cy="692.43" fill="#8b9ad9"></circle><circle r="5" cx="978.47" cy="252.72" fill="#8b9ad9"></circle><circle r="5" cx="1007.6" cy="513.12" fill="#8b9ad9"></circle><circle r="5" cx="977.86" cy="684.74" fill="#8b9ad9"></circle><circle r="5" cx="1160.56" cy="101.73" fill="#8b9ad9"></circle><circle r="5" cx="1088.92" cy="236.88" fill="#8b9ad9"></circle><circle r="5" cx="1149.96" cy="674" fill="#8b9ad9"></circle><circle r="5" cx="1259.28" cy="-50.4" fill="#8b9ad9"></circle><circle r="5" cx="1243.88" cy="61.71" fill="#8b9ad9"></circle><circle r="5" cx="1273.81" cy="251.09" fill="#8b9ad9"></circle><circle r="5" cx="1242.07" cy="398.45" fill="#8b9ad9"></circle><circle r="5" cx="1291.67" cy="679.84" fill="#8b9ad9"></circle><circle r="5" cx="1450.24" cy="-93.77" fill="#8b9ad9"></circle><circle r="5" cx="1404.5" cy="100.78" fill="#8b9ad9"></circle><circle r="5" cx="1426.14" cy="551.93" fill="#8b9ad9"></circle><circle r="5" cx="1587.51" cy="-54.83" fill="#8b9ad9"></circle><circle r="5" cx="1585" cy="61.88" fill="#8b9ad9"></circle><circle r="5" cx="1585.47" cy="533.28" fill="#8b9ad9"></circle></g><defs><mask id="SvgjsMask1000"><rect width="1440" height="560" fill="#ffffff"></rect></mask><radialGradient id="SvgjsRadialGradient1001"><stop stop-color="#ffffff" offset="0.1"></stop><stop stop-color="#1735b3" offset="0.2"></stop><stop stop-color="rgba(23, 53, 179, 0)" offset="1"></stop></radialGradient></defs></svg>