<svg xmlns="http://www.w3.org/2000/svg" version="1.1" xmlns:xlink="http://www.w3.org/1999/xlink" xmlns:svgjs="http://svgjs.com/svgjs" width="1440" height="250" preserveAspectRatio="none" viewBox="0 0 1440 250"><g mask="url(&quot;#SvgjsMask1316&quot;)" fill="none"><rect width="1440" height="250" x="0" y="0" fill="url(#SvgjsLinearGradient1317)"></rect><path d="M43 250L293 0L612.5 0L362.5 250z" fill="url(#SvgjsLinearGradient1318)"></path><path d="M277.6 250L527.6 0L821.6 0L571.6 250z" fill="url(#SvgjsLinearGradient1318)"></path><path d="M498.20000000000005 250L748.2 0L853.2 0L603.2 250z" fill="url(#SvgjsLinearGradient1318)"></path><path d="M726.8000000000001 250L976.8000000000001 0L1215.3000000000002 0L965.3000000000001 250z" fill="url(#SvgjsLinearGradient1318)"></path><path d="M1404 250L1154 0L1091 0L1341 250z" fill="url(#SvgjsLinearGradient1319)"></path><path d="M1190.4 250L940.4000000000001 0L590.9000000000001 0L840.9000000000001 250z" fill="url(#SvgjsLinearGradient1319)"></path><path d="M922.8 250L672.8 0L630.8 0L880.8 250z" fill="url(#SvgjsLinearGradient1319)"></path><path d="M703.1999999999999 250L453.19999999999993 0L397.69999999999993 0L647.6999999999999 250z" fill="url(#SvgjsLinearGradient1319)"></path><path d="M1200.0703745147785 250L1440 10.070374514778365L1440 250z" fill="url(#SvgjsLinearGradient1318)"></path><path d="M0 250L239.92962548522164 250L 0 10.070374514778365z" fill="url(#SvgjsLinearGradient1319)"></path></g><defs><mask id="SvgjsMask1316"><rect width="1440" height="250" fill="#ffffff"></rect></mask><linearGradient x1="79.34%" y1="-119%" x2="20.66%" y2="219%" gradientUnits="userSpaceOnUse" id="SvgjsLinearGradient1317"><stop stop-color="#0e2a47" offset="0"></stop><stop stop-color="rgba(128, 34, 116, 1)" offset="1"></stop></linearGradient><linearGradient x1="0%" y1="100%" x2="100%" y2="0%" id="SvgjsLinearGradient1318"><stop stop-color="rgba(15, 70, 185, 0.2)" offset="0"></stop><stop stop-opacity="0" stop-color="rgba(15, 70, 185, 0.2)" offset="0.66"></stop></linearGradient><linearGradient x1="100%" y1="100%" x2="0%" y2="0%" id="SvgjsLinearGradient1319"><stop stop-color="rgba(15, 70, 185, 0.2)" offset="0"></stop><stop stop-opacity="0" stop-color="rgba(15, 70, 185, 0.2)" offset="0.66"></stop></linearGradient></defs></svg>