<svg xmlns="http://www.w3.org/2000/svg" version="1.1" xmlns:xlink="http://www.w3.org/1999/xlink" xmlns:svgjs="http://svgjs.com/svgjs" width="1440" height="560" preserveAspectRatio="none" viewBox="0 0 1440 560"><g mask="url(&quot;#SvgjsMask1002&quot;)" fill="none"><rect width="1440" height="560" x="0" y="0" fill="url(#SvgjsLinearGradient1003)"></rect><path d="M1440 0L1377.45 0L1440 132.17z" fill="rgba(255, 255, 255, .1)"></path><path d="M1377.45 0L1440 132.17L1440 224.52999999999997L1236.76 0z" fill="rgba(255, 255, 255, .075)"></path><path d="M1236.76 0L1440 224.52999999999997L1440 356.76L538.8199999999999 0z" fill="rgba(255, 255, 255, .05)"></path><path d="M538.8199999999999 0L1440 356.76L1440 367.2L409.53999999999996 0z" fill="rgba(255, 255, 255, .025)"></path><path d="M0 560L619.9 560L0 551.35z" fill="rgba(0, 0, 0, .1)"></path><path d="M0 551.35L619.9 560L802.49 560L0 513.26z" fill="rgba(0, 0, 0, .075)"></path><path d="M0 513.26L802.49 560L1165.43 560L0 268.14z" fill="rgba(0, 0, 0, .05)"></path><path d="M0 268.14L1165.43 560L1220.1100000000001 560L0 117.38999999999999z" fill="rgba(0, 0, 0, .025)"></path></g><defs><mask id="SvgjsMask1002"><rect width="1440" height="560" fill="#ffffff"></rect></mask><linearGradient x1="15.28%" y1="-39.29%" x2="84.72%" y2="139.29%" gradientUnits="userSpaceOnUse" id="SvgjsLinearGradient1003"><stop stop-color="#0e2a47" offset="0"></stop><stop stop-color="#00459e" offset="1"></stop></linearGradient></defs></svg>